#!OML:ASF F:\VICON\USERDATA\INSTALL\rory3\rory3.ASF
:FULLY-SPECIFIED
:DEGREES
2183
root -0.0974848 17.7319 -5.41222 -1.096 -3.47217 2.97251
lowerback 3.53949 -1.2595 -5.39765
upperback 0.32646 -1.87987 0.640177
thorax -1.45369 -0.905696 3.77463
lowerneck -10.366 -9.69354 -16.1827
upperneck 10.7948 -12.1723 11.4977
head 6.69583 -5.82716 5.07966
rclavicle 1.47722e-014 2.38542e-015
rhumerus 1.39559 -20.6343 -40.9962
rradius 56.6158
rwrist 0.53091
rhand -29.0982 -3.84538
rfingers 7.12502
rthumb -2.44657 -33.8111
lclavicle 1.47722e-014 2.38542e-015
lhumerus -9.65177 8.97495 36.359
lradius 51.4829
lwrist 10.7733
lhand -13.15 30.0495
lfingers 7.12502
lthumb 12.9486 59.6277
rfemur -24.3649 1.10017 4.58055
rtibia 44.1
rfoot -9.36227 -9.07063
rtoes 5.19096
lfemur -2.85936 -2.26551 -26.0402
ltibia 21.3204
lfoot -14.3924 -8.19536
ltoes -3.72606
2184
root -0.0866367 17.7288 -5.37591 -1.19151 -3.56323 3.01979
lowerback 3.57344 -1.22352 -5.39903
upperback 0.266659 -1.83666 0.573586
thorax -1.54116 -0.880372 3.70677
lowerneck -10.7331 -9.71853 -16.0654
upperneck 10.9462 -12.177 11.477
head 6.79847 -5.81362 5.03931
rclavicle 4.60311e-015 3.97569e-016
rhumerus 1.82664 -22.0658 -40.2965
rradius 57.5621
rwrist -0.173242
rhand -29.6209 -3.8172
rfingers 7.12502
rthumb -2.95133 -33.7765
lclavicle 4.60311e-015 3.97569e-016
lhumerus -9.01675 10.4042 35.3214
lradius 51.7196
lwrist 11.1204
lhand -14.675 30.4871
lfingers 7.12502
lthumb 11.4782 60.1529
rfemur -24.3419 1.29594 4.56132
rtibia 43.2896
rfoot -9.65792 -9.64014
rtoes 4.62081
lfemur -2.54639 -2.00688 -26.1185
ltibia 21.2393
lfoot -14.3956 -8.33568
ltoes -3.93396
2185
root -0.0780062 17.7225 -5.33868 -1.24064 -3.74328 3.05446
lowerback 3.51559 -1.15189 -5.36581
upperback 0.215886 -1.73929 0.487698
thorax -1.57488 -0.830098 3.59441
lowerneck -11.0051 -9.75515 -15.8257
upperneck 10.9916 -12.2087 11.3489
head 6.8397 -5.81809 4.9451
rclavicle -2.90723e-015 3.97569e-015
rhumerus 2.22985 -23.5461 -39.7309
rradius 58.4579
rwrist -0.624373
rhand -30.2696 -3.64506
rfingers 7.12502
rthumb -3.57781 -33.5948
lclavicle -2.90723e-015 3.97569e-015
lhumerus -8.34275 11.9871 34.4355
lradius 51.9824
lwrist 11.2594
lhand -15.4727 30.8394
lfingers 7.12502
lthumb 10.7089 60.5465
rfemur -24.3797 1.58452 4.56097
rtibia 42.4306
rfoot -10.1159 -10.2837
rtoes 4.20561
lfemur -2.28652 -1.74377 -26.1869
ltibia 21.1271
lfoot -14.5877 -8.40837
ltoes -4.30082
2186
root -0.0699767 17.7163 -5.29836 -1.26026 -3.91574 3.09287
lowerback 3.43196 -1.12081 -5.3342
upperback 0.106589 -1.69611 0.404072
thorax -1.64861 -0.804596 3.48787
lowerneck -11.0737 -9.72435 -15.7021
upperneck 10.9478 -12.1857 11.4219
head 6.8312 -5.79468 4.95108
rclavicle 4.93234e-015 -7.95139e-016
rhumerus 2.67783 -24.9301 -39.3206
rradius 59.3296
rwrist -0.833514
rhand -30.7622 -3.48413
rfingers 7.12502
rthumb -4.05355 -33.4253
lclavicle 4.93234e-015 -7.95139e-016
lhumerus -7.8846 13.641 33.5817
lradius 52.3839
lwrist 11.3764
lhand -15.2868 30.8554
lfingers 7.12502
lthumb 10.8882 60.5531
rfemur -24.3938 1.78979 4.54531
rtibia 41.4994
rfoot -10.7301 -10.7666
rtoes 5.39281
lfemur -2.1295 -1.65776 -26.2668
ltibia 21.0618
lfoot -15.0922 -8.43886
ltoes -4.26917
2187
root -0.0619208 17.7104 -5.25772 -1.27533 -4.07878 3.10478
lowerback 3.40247 -1.11033 -5.31816
upperback -0.0445965 -1.68435 0.383084
thorax -1.79042 -0.791786 3.45832
lowerneck -11.1839 -9.68441 -15.7513
upperneck 11.0133 -12.1266 11.5174
head 6.87235 -5.75824 4.99401
rclavicle 3.26519e-014 -7.15625e-015
rhumerus 3.08332 -26.0755 -38.8198
rradius 60.2547
rwrist -1.07932
rhand -30.8084 -3.42532
rfingers 7.12502
rthumb -4.09813 -33.3656
lclavicle 3.26519e-014 -7.15625e-015
lhumerus -7.65413 15.2341 32.8019
lradius 52.8858
lwrist 11.5008
lhand -15.5531 30.9379
lfingers 7.12502
lthumb 10.6312 60.649
rfemur -24.3901 1.9871 4.56306
rtibia 40.5178
rfoot -11.3928 -11.2682
rtoes 6.77556
lfemur -1.96132 -1.66375 -26.3244
ltibia 21.0344
lfoot -15.3281 -8.42568
ltoes -4.02939
2188
root -0.0542006 17.7039 -5.21798 -1.3611 -4.21921 2.99578
lowerback 3.44866 -1.09067 -5.19049
upperback -0.143876 -1.65773 0.419955
thorax -1.92388 -0.773792 3.42637
lowerneck -11.2398 -9.67477 -15.7745
upperneck 10.9512 -12.0882 11.4713
head 6.85489 -5.74166 4.98564
rclavicle 2.62357e-014 9.93923e-015
rhumerus 3.42387 -27.129 -38.1995
rradius 61.206
rwrist -1.51255
rhand -31.097 -3.38341
rfingers 7.12502
rthumb -4.37683 -33.3182
lclavicle 2.62357e-014 9.93923e-015
lhumerus -7.53853 16.6336 32.0892
lradius 53.5504
lwrist 11.8774
lhand -15.849 31.0057
lfingers 7.12502
lthumb 10.3458 60.7312
rfemur -24.2922 2.23763 4.7418
rtibia 39.4963
rfoot -11.8345 -11.8352
rtoes 6.78361
lfemur -1.69116 -1.68391 -26.2606
ltibia 20.9885
lfoot -15.4918 -8.336
ltoes -3.74289
2189
root -0.0464478 17.6983 -5.17762 -1.43383 -4.39207 2.88935
lowerback 3.40504 -1.04345 -5.01639
upperback -0.187686 -1.58657 0.41014
thorax -1.9563 -0.738334 3.31479
lowerneck -11.2291 -9.66827 -15.7621
upperneck 10.7502 -12.0814 11.5645
head 6.79346 -5.73142 5.01656
rclavicle 7.72261e-015 -3.57812e-015
rhumerus 3.72988 -28.222 -37.6155
rradius 62.1127
rwrist -1.86646
rhand -31.6035 -3.42871
rfingers 7.12502
rthumb -4.86588 -33.3528
lclavicle 7.72261e-015 -3.57812e-015
lhumerus -7.14098 18.2953 31.5663
lradius 54.138
lwrist 12.3906
lhand -15.2629 30.996
lfingers 7.12502
lthumb 10.9112 60.6925
rfemur -24.1848 2.48099 4.93364
rtibia 38.4512
rfoot -12.0581 -12.2717
rtoes 6.57363
lfemur -1.43973 -1.64726 -26.1982
ltibia 20.9443
lfoot -15.6445 -8.28699
ltoes -3.32676
2190
root -0.0391699 17.6951 -5.13228 -1.43923 -4.62436 2.90006
lowerback 3.24389 -1.00319 -4.94868
upperback -0.245269 -1.52397 0.34874
thorax -1.93444 -0.707549 3.20744
lowerneck -11.4129 -9.64135 -15.64
upperneck 10.779 -12.0495 11.6235
head 6.82578 -5.70075 5.01477
rclavicle 2.07474e-014 -6.55989e-015
rhumerus 4.20694 -29.3625 -37.3138
rradius 62.8675
rwrist -1.85744
rhand -31.9627 -3.38927
rfingers 7.12502
rthumb -5.21275 -33.3052
lclavicle 2.07474e-014 -6.55989e-015
lhumerus -6.54347 20.3741 31.2236
lradius 54.5359
lwrist 12.4974
lhand -15.1606 31.1307
lfingers 7.12502
lthumb 11.0098 60.8219
rfemur -24.1652 2.68563 4.99137
rtibia 37.4116
rfoot -12.1737 -12.5353
rtoes 7.2456
lfemur -1.20561 -1.44498 -26.2669
ltibia 20.8714
lfoot -15.8628 -8.1903
ltoes -3.63829
2191
root -0.032559 17.6927 -5.08345 -1.43659 -4.84286 2.93435
lowerback 3.10267 -0.989439 -4.94752
upperback -0.364369 -1.50118 0.333588
thorax -1.98055 -0.692789 3.18852
lowerneck -11.7021 -9.58953 -15.5115
upperneck 11.0707 -11.9607 11.4936
head 6.93903 -5.65221 4.95277
rclavicle 2.12141e-015 2.78299e-015
rhumerus 4.69731 -30.3497 -37.0039
rradius 63.6065
rwrist -1.75267
rhand -32.3277 -3.29996
rfingers 7.12502
rthumb -5.56517 -33.2069
lclavicle 2.12141e-015 2.78299e-015
lhumerus -6.38289 21.9997 30.7323
lradius 55.1839
lwrist 12.6386
lhand -15.8358 31.4882
lfingers 7.12502
lthumb 10.3586 61.213
rfemur -24.1439 2.86267 5.02408
rtibia 36.3914
rfoot -12.2762 -12.7659
rtoes 7.84658
lfemur -0.920986 -1.29814 -26.3816
ltibia 20.761
lfoot -15.857 -7.92347
ltoes -4.66508
2192
root -0.0270135 17.6907 -5.03488 -1.44893 -5.05924 2.95826
lowerback 2.98016 -0.975781 -4.94355
upperback -0.515738 -1.48003 0.33196
thorax -2.07002 -0.677071 3.183
lowerneck -11.7114 -9.49783 -15.4417
upperneck 11.141 -11.8362 11.3958
head 6.9348 -5.59645 4.9265
rclavicle -4.60435e-014 6.16232e-015
rhumerus 5.00027 -31.0647 -36.4788
rradius 64.4381
rwrist -1.88778
rhand -32.6324 -3.38792
rfingers 7.12502
rthumb -5.85927 -33.2869
lclavicle -4.60435e-014 6.16232e-015
lhumerus -6.48425 23.1451 30.0946
lradius 55.9747
lwrist 13.1413
lhand -16.7259 31.7457
lfingers 7.12502
lthumb 9.49981 61.5116
rfemur -24.1089 3.03929 5.06326
rtibia 35.3876
rfoot -12.3792 -13.0537
rtoes 7.78927
lfemur -0.616493 -1.24593 -26.4814
ltibia 20.6176
lfoot -15.7214 -7.64433
ltoes -4.69089
2193
root -0.0214964 17.6867 -4.98824 -1.47163 -5.24285 2.93541
lowerback 2.87271 -0.960452 -4.86141
upperback -0.621247 -1.45333 0.333472
thorax -2.12281 -0.661412 3.13631
lowerneck -11.7129 -9.43626 -15.4672
upperneck 11.1488 -11.758 11.4588
head 6.93245 -5.55578 4.96223
rclavicle 1.94995e-014 2.5842e-015
rhumerus 5.31757 -31.7914 -35.9683
rradius 65.2235
rwrist -2.09369
rhand -32.9343 -3.57031
rfingers 7.12502
rthumb -6.15083 -33.461
lclavicle 1.94995e-014 2.5842e-015
lhumerus -6.42827 24.3732 29.6102
lradius 56.7277
lwrist 13.6489
lhand -17.0497 31.7579
lfingers 7.12502
lthumb 9.18742 61.5378
rfemur -24.0722 3.11428 5.17624
rtibia 34.3954
rfoot -12.2759 -13.1905
rtoes 7.47642
lfemur -0.329671 -1.24937 -26.5255
ltibia 20.4611
lfoot -15.7301 -7.42423
ltoes -3.75322
2194
root -0.0173046 17.6802 -4.94162 -1.4983 -5.40835 2.90748
lowerback 2.8211 -0.955748 -4.83256
upperback -0.690477 -1.44457 0.352261
thorax -2.16622 -0.654897 3.13894
lowerneck -11.9888 -9.4075 -15.3909
upperneck 11.2946 -11.7094 11.4986
head 7.01758 -5.51701 4.96032
rclavicle 2.25745e-014 -1.78906e-015
rhumerus 5.84769 -32.5731 -35.6646
rradius 65.8647
rwrist -2.20768
rhand -33.5317 -3.52332
rfingers 7.12502
rthumb -6.72755 -33.3964
lclavicle 2.25745e-014 -1.78906e-015
lhumerus -6.37612 25.4981 29.1231
lradius 57.5321
lwrist 14.2033
lhand -17.064 32.0003
lfingers 7.12502
lthumb 9.17357 61.7808
rfemur -24.0637 3.1767 5.30975
rtibia 33.4566
rfoot -12.0622 -13.2463
rtoes 7.88895
lfemur -0.0368188 -1.28178 -26.5592
ltibia 20.269
lfoot -15.7531 -7.26705
ltoes -3.19908
